Coordinates
version=1
nRows=37
nColumns=38
inDegrees=no

Units are S.I. units (second, meters, Newtons, ...)
If the header above contains a line with 'inDegrees', this indicates whether rotational values are in degrees (yes) or radians (no).

endheader
time	pelvis_tilt	pelvis_list	pelvis_rotation	pelvis_tx	pelvis_ty	pelvis_tz	hip_flexion_r	hip_adduction_r	hip_rotation_r	knee_angle_r	ankle_angle_r	subtalar_angle_r	mtp_angle_r	hip_flexion_l	hip_adduction_l	hip_rotation_l	knee_angle_l	ankle_angle_l	subtalar_angle_l	mtp_angle_l	lumbar_extension	lumbar_bending	lumbar_rotation	arm_flex_r	arm_add_r	arm_rot_r	elbow_flex_r	pro_sup_r	wrist_flex_r	wrist_dev_r	arm_flex_l	arm_add_l	arm_rot_l	elbow_flex_l	pro_sup_l	wrist_flex_l	wrist_dev_l
0.46	0.0535184	1.42931	-1.50619	0.702384	0.808053	0.950677	0.366725	-0.116142	-0.306589	0.323943	0.0797041	0	0	-0.310611	-0.0100071	-0.0736305	0.21787	0.297792	0	0	-0.22296	0.0346844	-0.13981	-0.0817725	-0.13337	-0.0106664	0.414893	1.23942	0	0	0.143793	-0.248277	0.355425	0.668844	0.924239	0	0
0.47	0.0121613	1.42808	-1.46636	0.701304	0.797694	0.949025	0.35148	-0.100369	-0.302979	0.264383	0.0817281	0	0	-0.327822	-0.0185625	-0.0790822	0.211252	0.304243	0	0	-0.2252	0.0424709	-0.137967	-0.0821679	-0.133363	-0.0143711	0.413777	1.24261	0	0	0.145619	-0.245059	0.348967	0.670468	0.937765	0	0
0.48	-0.0264188	1.42657	-1.42849	0.700229	0.787126	0.947327	0.334758	-0.0849614	-0.293912	0.205989	0.0817416	0	0	-0.344754	-0.0270811	-0.0843791	0.205707	0.310351	0	0	-0.227172	0.0500799	-0.137233	-0.0824406	-0.133167	-0.0180486	0.411983	1.24519	0	0	0.146124	-0.241837	0.34152	0.672256	0.951974	0	0
0.49	-0.0590205	1.42481	-1.39504	0.699248	0.776335	0.945599	0.316865	-0.0713067	-0.281195	0.150632	0.0793196	0	0	-0.360825	-0.0353924	-0.0890648	0.202302	0.316167	0	0	-0.228692	0.0571628	-0.138496	-0.0827066	-0.13267	-0.0219097	0.40949	1.24756	0	0	0.145431	-0.239424	0.336071	0.674509	0.964902	0	0
0.5	-0.0838426	1.42279	-1.36771	0.698395	0.765348	0.943843	0.298821	-0.0603392	-0.267705	0.101409	0.0753609	0	0	-0.375934	-0.0432409	-0.0929077	0.201293	0.321581	0	0	-0.229941	0.0635322	-0.141918	-0.0829269	-0.13201	-0.0255218	0.40639	1.24986	0	0	0.143543	-0.237977	0.332954	0.677182	0.973483	0	0
0.51	-0.0935547	1.42298	-1.35519	0.697558	0.754315	0.941862	0.290985	-0.055918	-0.26446	0.0751977	0.0791051	0	0	-0.386929	-0.0485419	-0.0954327	0.204062	0.32673	0	0	-0.228767	0.0670292	-0.146173	-0.0834666	-0.131227	-0.0272213	0.403249	1.24977	0	0	0.140892	-0.237317	0.332498	0.679375	0.976675	0	0
0.52	-0.102746	1.422	-1.34244	0.696733	0.743148	0.940006	0.286167	-0.0534367	-0.265592	0.0645431	0.0847669	0	0	-0.397381	-0.0547827	-0.0981617	0.210342	0.332189	0	0	-0.228541	0.0708489	-0.151054	-0.0843561	-0.130522	-0.0290793	0.40108	1.24917	0	0	0.137768	-0.236941	0.332946	0.681614	0.979824	0	0
0.53	-0.111422	1.4207	-1.3294	0.695948	0.731853	0.938257	0.286703	-0.0535022	-0.272946	0.0723823	0.0916338	0	0	-0.406089	-0.061907	-0.101404	0.220517	0.337678	0	0	-0.228421	0.0749034	-0.156602	-0.0854591	-0.129879	-0.0311188	0.399318	1.24835	0	0	0.133914	-0.236734	0.33381	0.683777	0.983126	0	0
0.54	-0.117763	1.42008	-1.31772	0.695215	0.720408	0.936565	0.292751	-0.05662	-0.285697	0.0965228	0.0973953	0	0	-0.411928	-0.0694419	-0.104005	0.23467	0.342771	0	0	-0.227221	0.0787737	-0.16322	-0.0874003	-0.129346	-0.0338662	0.398356	1.24802	0	0	0.129295	-0.236264	0.334595	0.684975	0.986592	0	0
0.55	-0.121074	1.42048	-1.30789	0.694576	0.708735	0.934934	0.301102	-0.0620648	-0.299464	0.129184	0.0999385	0	0	-0.414794	-0.0770946	-0.10498	0.252376	0.347068	0	0	-0.224266	0.0822684	-0.171154	-0.0901238	-0.1288	-0.0371797	0.397659	1.24796	0	0	0.123478	-0.235575	0.335481	0.685015	0.990228	0	0
0.56	-0.122818	1.4217	-1.29826	0.694033	0.696732	0.933387	0.309077	-0.0686001	-0.312705	0.165136	0.100702	0	0	-0.415141	-0.0852708	-0.104215	0.273213	0.350295	0	0	-0.219481	0.0855633	-0.180344	-0.094039	-0.128165	-0.0413628	0.397386	1.24781	0	0	0.116241	-0.234791	0.336707	0.684246	0.994002	0	0
0.57	-0.127379	1.42353	-1.28431	0.693538	0.684337	0.931923	0.315574	-0.0750902	-0.327642	0.201994	0.10228	0	0	-0.41311	-0.094658	-0.101557	0.296975	0.352087	0	0	-0.212637	0.0892301	-0.190769	-0.0996341	-0.127519	-0.0463158	0.397897	1.24768	0	0	0.107343	-0.23385	0.337954	0.682864	0.998	0	0
0.58	-0.133948	1.42626	-1.26692	0.693096	0.671507	0.930512	0.31997	-0.081508	-0.346292	0.236393	0.106989	0	0	-0.408344	-0.104936	-0.097092	0.323915	0.352047	0	0	-0.203263	0.0929069	-0.202339	-0.107092	-0.126944	-0.0513921	0.398806	1.24864	0	0	0.0966488	-0.232862	0.339281	0.68092	1.00258	0	0
0.59	-0.148297	1.42837	-1.24113	0.692545	0.658262	0.929275	0.318785	-0.0846915	-0.364482	0.260339	0.109564	0	0	-0.402554	-0.117108	-0.0916108	0.35322	0.349643	0	0	-0.192929	0.0975948	-0.213858	-0.116372	-0.126692	-0.0554252	0.400506	1.25008	0	0	0.0848355	-0.231385	0.339877	0.677954	1.00617	0	0
0.6	-0.177403	1.4304	-1.20152	0.691689	0.644821	0.928174	0.314805	-0.0836671	-0.381846	0.273698	0.100183	0	0	-0.394	-0.131632	-0.0872166	0.38628	0.344709	0	0	-0.181379	0.103868	-0.223625	-0.126737	-0.126548	-0.0618579	0.404387	1.24992	0	0	0.0727478	-0.229052	0.339623	0.673069	1.00967	0	0
0.61	-0.228352	1.43159	-1.14344	0.6903	0.631508	0.927386	0.310963	-0.0777806	-0.39609	0.281531	0.0743427	0	0	-0.382471	-0.148815	-0.0855807	0.423827	0.336558	0	0	-0.170247	0.112781	-0.228966	-0.136746	-0.126541	-0.0699261	0.409215	1.24822	0	0	0.0616957	-0.225264	0.33774	0.665615	1.01331	0	0
0.62	-0.308136	1.43096	-1.06219	0.688269	0.618574	0.927106	0.310162	-0.0661692	-0.403871	0.291701	0.0445325	0	0	-0.367741	-0.16879	-0.0883759	0.466587	0.324458	0	0	-0.160708	0.125694	-0.227835	-0.144598	-0.127304	-0.0769713	0.411997	1.24656	0	0	0.0522493	-0.219752	0.33438	0.655898	1.01707	0	0
0.63	-0.406205	1.42831	-0.968184	0.685759	0.605974	0.927387	0.31386	-0.0508536	-0.404829	0.31002	0.02846	0	0	-0.349881	-0.18997	-0.094532	0.514237	0.306388	0	0	-0.152629	0.141537	-0.220803	-0.150179	-0.129175	-0.0825897	0.41291	1.24437	0	0	0.0438335	-0.212734	0.330466	0.644791	1.02134	0	0
0.64	-0.499957	1.42523	-0.882028	0.683096	0.593471	0.928075	0.321404	-0.0360382	-0.400611	0.336225	0.0268592	0	0	-0.328864	-0.208924	-0.100734	0.565646	0.280807	0	0	-0.144607	0.156618	-0.210651	-0.154306	-0.132011	-0.0845746	0.411106	1.24238	0	0	0.0350173	-0.205121	0.326841	0.633311	1.02549	0	0
0.65	-0.589006	1.42596	-0.802135	0.680497	0.580933	0.928714	0.334708	-0.0250477	-0.393629	0.367138	0.0294964	0	0	-0.300161	-0.222841	-0.103853	0.621701	0.246622	0	0	-0.131876	0.167687	-0.200621	-0.158034	-0.135407	-0.0822014	0.407833	1.23832	0	0	0.0244588	-0.196863	0.32139	0.621184	1.02809	0	0
0.66	-0.655217	1.42837	-0.744393	0.67812	0.568508	0.929572	0.344809	-0.017188	-0.383415	0.39229	0.0269563	0	0	-0.269329	-0.230166	-0.099265	0.678135	0.20534	0	0	-0.119427	0.173916	-0.192942	-0.160062	-0.138793	-0.0752588	0.403283	1.23144	0	0	0.0119067	-0.190904	0.318879	0.613185	1.02135	0	0
0.67	-0.715366	1.43104	-0.691341	0.675845	0.556367	0.930511	0.350473	-0.00896456	-0.373104	0.408539	0.0201749	0	0	-0.235096	-0.235168	-0.0893733	0.737124	0.16024	0	0	-0.107577	0.178535	-0.187701	-0.160645	-0.141772	-0.0680317	0.398106	1.22682	0	0	-0.00207402	-0.187347	0.319589	0.60992	1.0072	0	0
0.68	-0.783357	1.43337	-0.628612	0.673524	0.544629	0.931319	0.352897	0.0009019	-0.365785	0.416486	0.0136943	0	0	-0.195916	-0.240622	-0.0757394	0.799647	0.114422	0	0	-0.095552	0.183245	-0.185296	-0.160317	-0.144207	-0.0610732	0.394949	1.22315	0	0	-0.0174052	-0.185948	0.321508	0.610964	0.990469	0	0
0.69	-0.860956	1.4348	-0.554752	0.671174	0.533326	0.93195	0.352677	0.0123411	-0.361814	0.417587	0.0100564	0	0	-0.152514	-0.246993	-0.0601348	0.864679	0.0692259	0	0	-0.0835015	0.188633	-0.184839	-0.159092	-0.14631	-0.0548852	0.392562	1.2201	0	0	-0.0330819	-0.185655	0.323184	0.614468	0.971634	0	0
0.7	-0.940621	1.43442	-0.476836	0.66896	0.522433	0.932481	0.349188	0.0251706	-0.360066	0.412794	0.00900082	0	0	-0.106604	-0.253578	-0.0417875	0.930727	0.0242437	0	0	-0.0724765	0.195054	-0.186167	-0.157605	-0.14845	-0.0498344	0.393057	1.21691	0	0	-0.0480769	-0.1856	0.3238	0.619084	0.952393	0	0
0.71	-1.0131	1.43206	-0.403507	0.667037	0.511817	0.933018	0.342661	0.0382582	-0.360822	0.404782	0.00973721	0	0	-0.0602372	-0.260194	-0.0215251	0.995034	-0.0211237	0	0	-0.0628767	0.202275	-0.189645	-0.156154	-0.150724	-0.0455054	0.39611	1.21343	0	0	-0.0619078	-0.185263	0.323065	0.623467	0.934616	0	0
0.72	-1.06784	1.42765	-0.346547	0.665321	0.501441	0.933756	0.333274	0.0513135	-0.363158	0.396438	0.011342	0	0	-0.016343	-0.266712	-0.00156259	1.05479	-0.0673741	0	0	-0.0561634	0.209929	-0.193865	-0.154551	-0.153178	-0.0406019	0.400898	1.2094	0	0	-0.0739389	-0.18495	0.323366	0.626134	0.917509	0	0
0.73	-1.10075	1.42187	-0.311233	0.663727	0.491308	0.934836	0.320926	0.0644989	-0.365055	0.388282	0.0126786	0	0	0.0231101	-0.272296	0.0174146	1.1085	-0.112219	0	0	-0.0531411	0.217504	-0.197302	-0.152308	-0.15569	-0.0345901	0.406032	1.20487	0	0	-0.0835167	-0.18473	0.32626	0.625789	0.901593	0	0
0.74	-1.11718	1.41566	-0.292668	0.662238	0.481409	0.936237	0.306093	0.0776256	-0.365252	0.379461	0.0139842	0	0	0.0585123	-0.275824	0.0360451	1.15749	-0.148451	0	0	-0.053348	0.224769	-0.199286	-0.149685	-0.158285	-0.0289003	0.412994	1.19723	0	0	-0.0903657	-0.184615	0.33336	0.622098	0.885354	0	0
0.75	-1.1176	1.41091	-0.291338	0.660772	0.471595	0.937913	0.288898	0.0888091	-0.363242	0.370293	0.0165216	0	0	0.0899658	-0.275829	0.0525935	1.20378	-0.163525	0	0	-0.056171	0.229697	-0.198721	-0.147421	-0.160726	-0.0228016	0.421632	1.18306	0	0	-0.0949841	-0.185452	0.344916	0.617251	0.865157	0	0
0.76	-1.11032	1.40846	-0.299433	0.659255	0.461842	0.939761	0.270316	0.0976773	-0.358952	0.360051	0.0205551	0	0	0.119116	-0.272321	0.0660849	1.24697	-0.158622	0	0	-0.059976	0.231684	-0.195901	-0.144895	-0.162444	-0.0195087	0.430128	1.17069	0	0	-0.0988064	-0.186472	0.355422	0.61192	0.851843	0	0
0.77	-1.09753	1.4082	-0.315468	0.657633	0.452255	0.941755	0.250849	0.104414	-0.352611	0.348495	0.0247077	0	0	0.146045	-0.266267	0.0748125	1.28529	-0.141767	0	0	-0.0648352	0.23096	-0.190441	-0.14153	-0.16379	-0.0157778	0.437133	1.16263	0	0	-0.102207	-0.187487	0.364924	0.606838	0.841662	0	0
0.78	-1.08321	1.40941	-0.335211	0.655881	0.442729	0.943848	0.230554	0.110161	-0.344218	0.334553	0.0279318	0	0	0.171253	-0.259068	0.0790554	1.31812	-0.120466	0	0	-0.0697456	0.228464	-0.182929	-0.137493	-0.164832	-0.0115945	0.44237	1.15949	0	0	-0.105807	-0.18833	0.372005	0.602023	0.834127	0	0
0.79	-1.07316	1.41179	-0.352957	0.653943	0.433261	0.94591	0.210854	0.115309	-0.334208	0.319244	0.030533	0	0	0.196083	-0.251412	0.0796972	1.34585	-0.100333	0	0	-0.073656	0.224817	-0.173234	-0.133348	-0.165788	-0.00712162	0.447021	1.15859	0	0	-0.109925	-0.189481	0.380955	0.59716	0.828384	0	0
0.8	-1.06999	1.4154	-0.365028	0.651922	0.42399	0.947796	0.193054	0.119128	-0.325053	0.304378	0.0332885	0	0	0.221886	-0.242653	0.0789565	1.36897	-0.0839692	0	0	-0.0762196	0.220227	-0.16251	-0.128841	-0.166594	-0.00419987	0.452123	1.15766	0	0	-0.114656	-0.19056	0.387321	0.594795	0.824429	0	0
0.81	-1.0684	1.41922	-0.375704	0.649914	0.414792	0.949605	0.174636	0.122801	-0.315584	0.287589	0.0353745	0	0	0.247344	-0.233895	0.0774821	1.38708	-0.072479	0	0	-0.0782904	0.215503	-0.151935	-0.123905	-0.167839	0.00176661	0.456459	1.15679	0	0	-0.12017	-0.191608	0.391661	0.594463	0.819987	0	0
0.82	-1.06131	1.42262	-0.391931	0.647916	0.405545	0.951446	0.15374	0.126757	-0.305219	0.268008	0.0363313	0	0	0.270756	-0.226095	0.0746792	1.39999	-0.0651066	0	0	-0.0810719	0.210837	-0.141483	-0.118506	-0.169413	0.0107855	0.459786	1.15641	0	0	-0.126571	-0.192683	0.39339	0.595889	0.814085	0	0
